Coordinates
version=1
nRows=30
nColumns=38
inDegrees=no

Units are S.I. units (second, meters, Newtons, ...)
If the header above contains a line with 'inDegrees', this indicates whether rotational values are in degrees (yes) or radians (no).

endheader
time	pelvis_tilt	pelvis_list	pelvis_rotation	pelvis_tx	pelvis_ty	pelvis_tz	hip_flexion_r	hip_adduction_r	hip_rotation_r	knee_angle_r	ankle_angle_r	subtalar_angle_r	mtp_angle_r	hip_flexion_l	hip_adduction_l	hip_rotation_l	knee_angle_l	ankle_angle_l	subtalar_angle_l	mtp_angle_l	lumbar_extension	lumbar_bending	lumbar_rotation	arm_flex_r	arm_add_r	arm_rot_r	elbow_flex_r	pro_sup_r	wrist_flex_r	wrist_dev_r	arm_flex_l	arm_add_l	arm_rot_l	elbow_flex_l	pro_sup_l	wrist_flex_l	wrist_dev_l
22.06	-0.164035	1.37446	-1.35262	0.778086	-0.49577	0.955842	-0.103943	-0.00849883	-0.0809668	0.332033	-0.32915	0	0	-0.182205	-0.0774465	0.0282316	0.155745	-0.41282	0	0	-0.605377	0.171657	-0.115443	-0.166593	-0.252839	-0.0108383	1.10874	1.5708	0	0	-0.215649	-0.14908	-0.191815	0.897338	1.5708	0	0
22.07	-0.158588	1.37408	-1.35653	0.778057	-0.496629	0.955951	-0.106092	-0.00934649	-0.0831936	0.331845	-0.325297	0	0	-0.189676	-0.076794	0.0397952	0.136815	-0.397349	0	0	-0.60314	0.169944	-0.115969	-0.168733	-0.253156	-0.0130743	1.11188	1.5708	0	0	-0.217821	-0.151426	-0.188376	0.902702	1.5708	0	0
22.08	-0.152327	1.35926	-1.35345	0.778368	-0.498365	0.956925	-0.0850133	-0.00101985	-0.284699	0.428793	-0.291592	0	0	-0.214893	-0.0834323	0.0448184	0.116642	-0.408383	0	0	-0.613178	0.1744	-0.123555	-0.170957	-0.254605	-0.0096151	1.11587	1.5708	0	0	-0.224693	-0.155001	-0.187769	0.914259	1.5708	0	0
22.09	-0.150953	1.37197	-1.3623	0.777956	-0.498265	0.956095	-0.111553	-0.0102138	-0.088166	0.330463	-0.325147	0	0	-0.199182	-0.0762442	0.0420263	0.124951	-0.403269	0	0	-0.600505	0.166782	-0.12011	-0.168091	-0.258059	-0.00409126	1.11229	1.5708	0	0	-0.225321	-0.155768	-0.185906	0.914823	1.5708	0	0
22.1	-0.1412	1.35668	-1.36303	0.778302	-0.499881	0.957046	-0.0905014	-0.00333295	-0.289116	0.430233	-0.283393	0	0	-0.217846	-0.0803798	0.0328317	0.127501	-0.433665	0	0	-0.612296	0.170537	-0.137604	-0.161723	-0.261549	0.01055	1.11402	1.5708	0	0	-0.239555	-0.156814	-0.197089	0.930917	1.5708	0	0
22.11	-0.136649	1.35559	-1.36699	0.778122	-0.500634	0.957128	-0.0930859	-0.00388729	-0.290422	0.430389	-0.281802	0	0	-0.227383	-0.0796593	0.0453713	0.106402	-0.413621	0	0	-0.607876	0.16822	-0.140106	-0.158906	-0.264519	0.0175568	1.11099	1.5708	0	0	-0.24175	-0.159782	-0.193826	0.932851	1.5708	0	0
22.12	-0.13534	1.35485	-1.36773	0.77801	-0.501379	0.957082	-0.0950808	-0.00385027	-0.291492	0.43043	-0.281085	0	0	-0.231263	-0.0798151	0.0451785	0.102199	-0.414404	0	0	-0.605276	0.167113	-0.143727	-0.156318	-0.267647	0.0254309	1.10993	1.5708	0	0	-0.2464	-0.161989	-0.19313	0.938091	1.5708	0	0
22.13	-0.13408	1.35393	-1.36838	0.77791	-0.502064	0.957039	-0.097141	-0.00381825	-0.292577	0.4305	-0.280828	0	0	-0.235116	-0.0801742	0.0452075	0.0978414	-0.415097	0	0	-0.603288	0.166162	-0.146809	-0.154099	-0.271197	0.0345414	1.10831	1.5708	0	0	-0.251012	-0.164337	-0.192347	0.944305	1.5708	0	0
22.14	-0.133557	1.35331	-1.36852	0.777791	-0.502718	0.956992	-0.0986214	-0.00368656	-0.293318	0.430786	-0.281061	0	0	-0.23804	-0.0805839	0.0450469	0.0943761	-0.415574	0	0	-0.601694	0.165257	-0.148374	-0.153372	-0.274145	0.0417761	1.10774	1.5708	0	0	-0.254937	-0.166505	-0.191757	0.95104	1.5708	0	0
22.15	-0.136341	1.35279	-1.3655	0.777713	-0.503355	0.956839	-0.0997389	-0.00281816	-0.293685	0.431145	-0.281922	0	0	-0.241141	-0.0828764	0.0444788	0.090969	-0.415398	0	0	-0.599689	0.164817	-0.150237	-0.152514	-0.276914	0.0471776	1.10969	1.5708	0	0	-0.259899	-0.16792	-0.19315	0.959582	1.5708	0	0
22.16	-0.13285	1.35209	-1.36917	0.777582	-0.503881	0.956944	-0.101304	-0.00329988	-0.293228	0.430924	-0.283824	0	0	-0.240798	-0.0813812	0.0418247	0.0943969	-0.414962	0	0	-0.60437	0.163789	-0.154767	-0.151	-0.278642	0.0516194	1.116	1.5708	0	0	-0.268048	-0.169172	-0.198046	0.972503	1.5708	0	0
22.17	-0.141995	1.3655	-1.36763	0.777243	-0.50375	0.95604	-0.125298	-0.00917698	-0.104644	0.330969	-0.32463	0	0	-0.224388	-0.0784395	0.0390633	0.100568	-0.408628	0	0	-0.584856	0.158264	-0.14322	-0.150432	-0.282838	0.0546516	1.1085	1.5708	0	0	-0.260067	-0.171123	-0.187953	0.965005	1.5708	0	0
22.18	-0.130401	1.35216	-1.37173	0.777527	-0.50498	0.956813	-0.102071	-0.00417875	-0.294113	0.433437	-0.274157	0	0	-0.24219	-0.0814307	0.0388499	0.0946685	-0.415712	0	0	-0.598108	0.16138	-0.144073	-0.159791	-0.283718	0.0467754	1.12602	1.5708	0	0	-0.263745	-0.176387	-0.183305	0.980098	1.5708	0	0
22.19	-0.128881	1.35277	-1.37327	0.777581	-0.505489	0.956747	-0.102056	-0.00484363	-0.294037	0.433977	-0.273586	0	0	-0.241714	-0.0808104	0.0373884	0.0951634	-0.415591	0	0	-0.596437	0.160476	-0.144545	-0.159696	-0.287107	0.0504425	1.13121	1.5708	0	0	-0.266351	-0.177938	-0.183239	0.988184	1.5708	0	0
22.2	-0.125626	1.35303	-1.37661	0.777634	-0.506051	0.956792	-0.102917	-0.00577811	-0.29403	0.433492	-0.275156	0	0	-0.241509	-0.0796855	0.0365036	0.0961935	-0.41601	0	0	-0.59035	0.159066	-0.139613	-0.162549	-0.289752	0.0491218	1.1346	1.5708	0	0	-0.262591	-0.180966	-0.175846	0.990643	1.5708	0	0
22.21	-0.125849	1.34013	-1.37581	0.777656	-0.505682	0.957115	-0.117538	-0.00265316	-0.294806	0.431608	-0.272869	0	0	-0.261877	-0.0862609	0.0399718	0.0801559	-0.425131	0	0	-0.644186	0.159566	-0.254519	-0.0654449	-0.308921	0.190609	1.1284	1.5708	0	0	-0.374857	-0.134462	-0.330169	1.10333	1.5708	0	0
22.22	-0.123618	1.3514	-1.379	0.777525	-0.5071	0.956899	-0.106793	-0.00542922	-0.292724	0.432028	-0.270876	0	0	-0.248807	-0.0825117	0.0411835	0.0841084	-0.42353	0	0	-0.594772	0.157329	-0.158493	-0.146643	-0.300672	0.0769415	1.14911	1.5708	0	0	-0.287782	-0.177954	-0.202272	1.0324	1.5708	0	0
22.23	-0.135449	1.35436	-1.36689	0.777803	-0.507867	0.956303	-0.103854	-0.00358314	-0.292619	0.432668	-0.270171	0	0	-0.24808	-0.0851283	0.041825	0.0817579	-0.42187	0	0	-0.590251	0.159932	-0.160876	-0.145465	-0.306049	0.0813247	1.15951	1.5708	0	0	-0.294302	-0.178565	-0.204556	1.04781	1.5708	0	0
22.24	-0.13146	1.35553	-1.37091	0.777926	-0.508516	0.956413	-0.103877	-0.00484445	-0.292431	0.432341	-0.269885	0	0	-0.246235	-0.0818266	0.0416897	0.0851654	-0.421038	0	0	-0.583136	0.158413	-0.159329	-0.143848	-0.310376	0.0842394	1.16266	1.5708	0	0	-0.293003	-0.181056	-0.201079	1.05574	1.5708	0	0
22.25	-0.134508	1.35722	-1.36806	0.778049	-0.509191	0.956273	-0.102988	-0.00457301	-0.291859	0.431976	-0.269999	0	0	-0.246099	-0.0820079	0.0428171	0.0832497	-0.421643	0	0	-0.579093	0.159003	-0.15491	-0.147461	-0.313557	0.0791295	1.17385	1.5708	0	0	-0.291733	-0.184338	-0.195629	1.06577	1.5708	0	0
22.26	-0.123788	1.34807	-1.37817	0.778202	-0.509004	0.956819	-0.114344	-0.00521515	-0.293244	0.430031	-0.270418	0	0	-0.254027	-0.0799609	0.041923	0.0898957	-0.415358	0	0	-0.615755	0.157078	-0.233716	-0.0765959	-0.32834	0.178498	1.16999	1.5708	0	0	-0.368052	-0.152971	-0.300762	1.14657	1.5708	0	0
22.27	-0.142146	1.36553	-1.36533	0.778173	-0.509695	0.9559	-0.128836	-0.00698244	-0.1479	0.3378	-0.321771	0	0	-0.23495	-0.0789001	0.0412721	0.093589	-0.411358	0	0	-0.571281	0.156339	-0.171178	-0.121436	-0.328102	0.115851	1.17753	1.5708	0	0	-0.308574	-0.178876	-0.221717	1.09667	1.5708	0	0
22.28	-0.128517	1.35385	-1.37344	0.778395	-0.5105	0.956559	-0.11078	-0.00527123	-0.293473	0.427854	-0.272464	0	0	-0.250079	-0.0795961	0.0443609	0.0878558	-0.415834	0	0	-0.590601	0.157223	-0.203267	-0.0962228	-0.335952	0.154055	1.18494	1.5708	0	0	-0.337852	-0.170536	-0.260855	1.13579	1.5708	0	0
22.29	-0.128856	1.35377	-1.37332	0.778454	-0.510881	0.95654	-0.111688	-0.00524523	-0.293479	0.427177	-0.273553	0	0	-0.250716	-0.0795033	0.0435405	0.0877898	-0.415605	0	0	-0.599812	0.157564	-0.211303	-0.0900787	-0.340651	0.162039	1.20225	1.5708	0	0	-0.349598	-0.169213	-0.273426	1.15902	1.5708	0	0
22.3	-0.142282	1.36815	-1.36497	0.77841	-0.511318	0.955876	-0.127899	-0.00732817	-0.15826	0.338174	-0.321266	0	0	-0.235896	-0.0777689	0.0430026	0.0877095	-0.415568	0	0	-0.565201	0.155606	-0.163854	-0.120885	-0.342824	0.121344	1.2066	1.56413	0	0	-0.301965	-0.188823	-0.21192	1.11852	1.5708	0	0
22.31	-0.124906	1.35363	-1.37779	0.778534	-0.511751	0.956579	-0.113617	-0.00666531	-0.294989	0.426707	-0.269292	0	0	-0.256852	-0.0791614	0.0429791	0.077439	-0.421894	0	0	-0.60346	0.155461	-0.227059	-0.0666687	-0.354253	0.198963	1.21295	1.54726	0	0	-0.36344	-0.166822	-0.291747	1.18378	1.5708	0	0
22.32	-0.132484	1.35929	-1.37038	0.778635	-0.512634	0.956152	-0.108282	-0.0063308	-0.29518	0.42655	-0.270068	0	0	-0.254307	-0.0811067	0.0466391	0.0719289	-0.422595	0	0	-0.57925	0.155603	-0.204014	-0.0784371	-0.357701	0.182787	1.21112	1.54976	0	0	-0.335304	-0.179026	-0.256415	1.15559	1.5708	0	0
22.33	-0.133575	1.36277	-1.36991	0.778689	-0.513298	0.955995	-0.104965	-0.00717103	-0.295022	0.427363	-0.26867	0	0	-0.253851	-0.0807404	0.0452066	0.0654564	-0.428114	0	0	-0.565101	0.154961	-0.170434	-0.104051	-0.362803	0.155449	1.22426	1.49089	0	0	-0.301996	-0.193939	-0.210866	1.13072	1.5708	0	0
22.34	-0.127178	1.36118	-1.37696	0.778668	-0.513557	0.956163	-0.107148	-0.00850359	-0.294885	0.428061	-0.268526	0	0	-0.255836	-0.0787105	0.0411033	0.0660485	-0.4278	0	0	-0.575841	0.154357	-0.179499	-0.0940593	-0.367192	0.168601	1.23309	1.48192	0	0	-0.312339	-0.192351	-0.223859	1.14801	1.5708	0	0
22.35	-0.127886	1.36256	-1.3772	0.778592	-0.514219	0.956068	-0.106377	-0.00874348	-0.294629	0.428145	-0.268678	0	0	-0.254824	-0.0784211	0.0402877	0.0676056	-0.427101	0	0	-0.563982	0.153687	-0.165222	-0.0993723	-0.368013	0.158269	1.2272	1.50386	0	0	-0.293843	-0.199381	-0.20284	1.13346	1.5708	0	0
